# xmcd
#
# Track frame offsets: 
#        182
#        15725
#        29652
#        44377
#        58905
#        74332
#        87972
#        99987
#        113962
#        127482
#
# Disc length: 1983 seconds
#
# Revision: 4
# Processed by: cddbd v1.5.2PL0 Copyright (c) Steve Scherf et al.
# Submitted via: ExactAudioCopy v0.99pb5
#
DISCID=9207bd0a
DTITLE=Dean Dillon - Out Of Your Ever Lovin' Mind
DYEAR=1991
DGENRE=Country
TTITLE0=Friday Night's Woman
TTITLE1=Holed Up I Some Honkey Tonk
TTITLE2=Best Love Friends
TTITLE3=She Knows What She Wants
TTITLE4=Holding My Own
TTITLE5=Dont You Even (Think About Leaving)
TTITLE6=Her Thinkin' I'm Doing Her Wrong (Ain't Doin' Me Right)
TTITLE7=A Country Boy (Who Rolled The Rock Away)
TTITLE8=You Must Be Out Of Your Ever Lovin' Mind
TTITLE9=The Umbrella Song
EXTD=MillenniumMusicProjectFormat
EXTT0=
EXTT1=
EXTT2=
EXTT3=
EXTT4=
EXTT5=
EXTT6=
EXTT7=
EXTT8=
EXTT9=
PLAYORDER=
